<svg width="682" height="210" viewBox="0 0 682 210" fill="none" xmlns="http://www.w3.org/2000/svg">
<path d="M6.9375 150V55.4375H23.9375V86.5C26.2708 83.2917 29.5625 80.8125 33.8125 79.0625C37.5625 77.5625 41.6458 76.8125 46.0625 76.8125C56.1875 76.8125 64.7083 80.6042 71.625 88.1875C78.3333 95.6042 81.6875 104.396 81.6875 114.562C81.6875 118.979 80.8542 123.562 79.1875 128.312C77.5625 133.062 75.3542 137.083 72.5625 140.375C69.4792 144.125 65.625 147.062 61 149.188C56.4167 151.271 51.6042 152.312 46.5625 152.312C41.5625 152.312 37.0625 151.375 33.0625 149.5C28.8125 147.5 25.2917 144.458 22.5 140.375V150H6.9375ZM44.3125 93.4375C38.4792 93.4375 33.4583 95.3542 29.25 99.1875C25.0417 103.021 22.9375 107.833 22.9375 113.625C22.9375 119.917 24.9167 125.167 28.875 129.375C32.8333 133.583 37.9792 135.688 44.3125 135.688C50.2708 135.688 55.1458 133.688 58.9375 129.688C62.7292 125.688 64.625 120.688 64.625 114.688C64.625 108.646 62.7708 103.625 59.0625 99.625C55.2292 95.5 50.3125 93.4375 44.3125 93.4375ZM91.4375 150V55.4375H108.438V150H91.4375ZM157.375 76.8125C167.667 76.8125 176.438 80.5208 183.688 87.9375C187.312 91.6458 190.021 95.7083 191.812 100.125C193.604 104.542 194.5 109.396 194.5 114.688C194.5 125.104 190.792 133.979 183.375 141.312C175.958 148.646 167.042 152.312 156.625 152.312C146.417 152.312 137.604 148.625 130.188 141.25C122.771 133.875 119.062 125.021 119.062 114.688C119.062 104.104 122.792 95.1458 130.25 87.8125C137.708 80.4792 146.75 76.8125 157.375 76.8125ZM156.625 93.4375C155.375 93.4375 154.083 93.5833 152.75 93.875C151.417 94.1667 150.083 94.625 148.75 95.25C146.167 96.375 143.917 97.9167 142 99.875C140.083 101.792 138.625 104.042 137.625 106.625C136.625 109.167 136.125 111.854 136.125 114.688C136.125 120.479 138.104 125.438 142.062 129.562C146.021 133.646 150.875 135.688 156.625 135.688C162.542 135.688 167.479 133.688 171.438 129.688C175.438 125.646 177.438 120.646 177.438 114.688C177.438 108.771 175.417 103.75 171.375 99.625C167.333 95.5 162.417 93.4375 156.625 93.4375ZM255 126.938H274.188C271.938 134.396 267.5 140.5 260.875 145.25C254.25 149.958 246.958 152.312 239 152.312C234.292 152.312 229.562 151.375 224.812 149.5C220.104 147.583 216.042 144.979 212.625 141.688C208.833 138.021 205.958 133.833 204 129.125C202.042 124.417 201.062 119.396 201.062 114.062C201.062 103.771 204.75 95 212.125 87.75C219.542 80.4583 228.458 76.8125 238.875 76.8125C246.708 76.8125 254.021 79.2083 260.812 84C267.604 88.7917 272.062 95 274.188 102.625H255C251.375 96.5 245.917 93.4375 238.625 93.4375C232.625 93.4375 227.708 95.4167 223.875 99.375C220.042 103.333 218.125 108.312 218.125 114.312C218.125 120.562 220.125 125.688 224.125 129.688C228.125 133.688 233.25 135.688 239.5 135.688C242.708 135.688 245.646 134.917 248.312 133.375C250.979 131.792 253.208 129.646 255 126.938ZM286.188 150V55.4375H303.188V112.5L326 79.0625H346.062L320.438 113.75L350.312 150H327.5L303.188 116.875V150H286.188ZM363 150V94.1875H354.625V79.0625H363V55.4375H380V79.0625H390.25V94.1875H380V150H363ZM398.812 150V79.0625H414.25V85.5C416.292 82.4583 418.542 80.25 421 78.875C423.458 77.5 426.375 76.8125 429.75 76.8125H431.062V93.3125C430.104 93.3125 429.188 93.375 428.312 93.5C427.438 93.625 426.5 93.8542 425.5 94.1875C423.833 94.6875 422.229 95.5 420.688 96.625C418.604 98.3333 417.188 100.604 416.438 103.438C416.021 105.312 415.812 108.083 415.812 111.75V150H398.812ZM511.625 79.0625V150H496V140.375C493.375 143.917 489.771 146.792 485.188 149C480.646 151.208 476.146 152.312 471.688 152.312C466.229 152.312 461.312 151.292 456.938 149.25C452.604 147.208 448.812 144.25 445.562 140.375C442.729 136.958 440.542 133.021 439 128.562C437.458 124.062 436.688 119.396 436.688 114.562C436.688 109.438 437.375 104.833 438.75 100.75C440.167 96.625 442.521 92.7292 445.812 89.0625C449.396 84.8958 453.396 81.8125 457.812 79.8125C462.229 77.8125 467.021 76.8125 472.188 76.8125C477.104 76.8125 481.583 77.8542 485.625 79.9375C489.708 82.0208 493.167 85.0625 496 89.0625V79.0625H511.625ZM495.438 114.438C495.438 108.396 493.542 103.396 489.75 99.4375C485.958 95.4375 481.042 93.4375 475 93.4375C468.875 93.4375 463.792 95.5 459.75 99.625C455.75 103.708 453.75 108.896 453.75 115.188C453.75 120.938 455.792 125.792 459.875 129.75C463.958 133.708 468.917 135.688 474.75 135.688C480.792 135.688 485.75 133.688 489.625 129.688C493.5 125.688 495.438 120.604 495.438 114.438ZM575.125 126.938H594.312C592.062 134.396 587.625 140.5 581 145.25C574.375 149.958 567.083 152.312 559.125 152.312C554.417 152.312 549.688 151.375 544.938 149.5C540.229 147.583 536.167 144.979 532.75 141.688C528.958 138.021 526.083 133.833 524.125 129.125C522.167 124.417 521.188 119.396 521.188 114.062C521.188 103.771 524.875 95 532.25 87.75C539.667 80.4583 548.583 76.8125 559 76.8125C566.833 76.8125 574.146 79.2083 580.938 84C587.729 88.7917 592.188 95 594.312 102.625H575.125C571.5 96.5 566.042 93.4375 558.75 93.4375C552.75 93.4375 547.833 95.4167 544 99.375C540.167 103.333 538.25 108.312 538.25 114.312C538.25 120.562 540.25 125.688 544.25 129.688C548.25 133.688 553.375 135.688 559.625 135.688C562.833 135.688 565.771 134.917 568.438 133.375C571.104 131.792 573.333 129.646 575.125 126.938ZM676.312 122.125H621.25C622.5 126.25 624.833 129.542 628.25 132C631.708 134.458 635.604 135.688 639.938 135.688C643.229 135.688 646.271 135.146 649.062 134.062C651.896 132.938 654.146 131.417 655.812 129.5H674.625C672.5 135.875 668.167 141.271 661.625 145.688C655.083 150.104 648.062 152.312 640.562 152.312C630.312 152.312 621.5 148.688 614.125 141.438C610.5 137.812 607.771 133.812 605.938 129.438C604.104 125.062 603.188 120.271 603.188 115.062C603.188 104.562 606.812 95.5625 614.062 88.0625C621.312 80.5625 630.25 76.8125 640.875 76.8125C650.875 76.8125 659.417 80.5208 666.5 87.9375C673.625 95.3125 677.188 104.021 677.188 114.062C677.188 114.896 677.188 115.708 677.188 116.5C677.062 117.208 676.979 117.729 676.938 118.062L676.312 122.125ZM621 107H660.062C658.688 102.917 656.229 99.6458 652.688 97.1875C649.146 94.6875 645.167 93.4375 640.75 93.4375C636.417 93.4375 632.354 94.6875 628.562 97.1875C624.771 99.6875 622.25 102.958 621 107Z" fill="white"/>
<rect x="439" y="179" width="243" height="31" fill="#726BDF"/>
</svg>
